<!DOCTYPE svg PUBLIC "-//W3C//DTD SVG 1.1//EN" "http://www.w3.org/Graphics/SVG/1.1/DTD/svg11.dtd">
<!-- Uploaded to: SVG Repo, www.svgrepo.com, Transformed by: SVG Repo Mixer Tools -->
<svg fill="#636363" height="800px" width="800px" version="1.1" id="Capa_1" xmlns="http://www.w3.org/2000/svg" xmlns:xlink="http://www.w3.org/1999/xlink" viewBox="0 0 512 512" xml:space="preserve" stroke="#636363">
<g id="SVGRepo_bgCarrier" stroke-width="0"/>
<g id="SVGRepo_tracerCarrier" stroke-linecap="round" stroke-linejoin="round"/>
<g id="SVGRepo_iconCarrier"> <g> <g> <path d="M418.357,67.163h-15.751V56.258c0-4.303-3.486-7.789-7.789-7.789H293.088l8.572-15.429 c1.34-2.413,1.303-5.355-0.097-7.733c-1.4-2.378-3.954-3.838-6.713-3.838h-19.199C275.502,9.606,265.819,0,253.922,0 c-11.897,0-21.579,9.606-21.728,21.467h-19.199c-2.759,0-5.313,1.46-6.713,3.838c-1.4,2.379-1.436,5.32-0.097,7.733l8.573,15.429 h-30.763c-4.303,0-7.789,3.486-7.789,7.789c0,4.303,3.486,7.789,7.789,7.789h28.325l-6.358,13.349 c-1.149,2.412-0.98,5.248,0.447,7.508c1.427,2.261,3.914,3.631,6.586,3.631h81.855c2.672,0,5.159-1.37,6.586-3.631 c1.427-2.26,1.595-5.093,0.447-7.508l-6.357-13.349h91.502v165.883c0,4.303,3.486,7.789,7.789,7.789 c4.303,0,7.789-3.486,7.789-7.789V82.741h7.962v413.681h-7.962V304.764c0-4.303-3.486-7.789-7.789-7.789 c-4.303,0-7.789,3.486-7.789,7.789v191.658H117.183h-15.751V64.047h25.46c4.303,0,7.789-3.486,7.789-7.789 s-3.486-7.789-7.789-7.789H93.643c-4.303,0-7.789,3.486-7.789,7.789v447.953c0,4.303,3.486,7.789,7.789,7.789h23.54h277.634h23.54 c4.303,0,7.789-3.486,7.789-7.789V74.952C426.146,70.649,422.66,67.163,418.357,67.163z M253.922,15.578 c3.306,0,6.005,2.619,6.15,5.89h-12.3C247.918,18.197,250.617,15.578,253.922,15.578z M225.332,72.957l7.898-16.587 c1.082-2.273,0.999-4.93-0.224-7.132l-6.773-12.192h6.075c0.647,3.649,3.827,6.423,7.662,6.423c3.835,0,7.015-2.773,7.662-6.423 h12.583c0.647,3.649,3.827,6.423,7.662,6.423c3.835,0,7.015-2.773,7.662-6.423h6.075l-6.773,12.192 c-1.222,2.202-1.305,4.858-0.223,7.132l7.898,16.587H225.332z"/> </g> </g> <g> <g> <path d="M323.851,162.555H173.61c-4.303,0-7.789,3.486-7.789,7.789c0,4.303,3.486,7.789,7.789,7.789h150.241 c4.303,0,7.789-3.486,7.789-7.789S328.154,162.555,323.851,162.555z"/> </g> </g> <g> <g> <path d="M275.386,190.461H173.61c-4.303,0-7.789,3.486-7.789,7.789c0,4.303,3.487,7.789,7.789,7.789h101.776 c4.303,0,7.789-3.486,7.789-7.789C283.175,193.948,279.688,190.461,275.386,190.461z"/> </g> </g> <g> <g> <path d="M296.849,218.366H173.61c-4.303,0-7.789,3.486-7.789,7.789c0,4.303,3.487,7.789,7.789,7.789h123.239 c4.303,0,7.789-3.486,7.789-7.789C304.638,221.852,301.152,218.366,296.849,218.366z"/> </g> </g> <g> <g> <path d="M183.995,248.406h-32.368v-99.352h32.368c4.303,0,7.789-3.486,7.789-7.789s-3.486-7.789-7.789-7.789h-40.157 c-4.303,0-7.789,3.486-7.789,7.789v114.93c0,4.303,3.487,7.789,7.789,7.789h40.157c4.303,0,7.789-3.486,7.789-7.789 C191.784,251.893,188.298,248.406,183.995,248.406z"/> </g> </g> <g> <g> <path d="M323.851,325.562H173.61c-4.303,0-7.789,3.486-7.789,7.789c0,4.303,3.486,7.789,7.789,7.789h150.241 c4.303,0,7.789-3.486,7.789-7.789C331.64,329.048,328.154,325.562,323.851,325.562z"/> </g> </g> <g> <g> <path d="M275.386,353.468H173.61c-4.303,0-7.789,3.486-7.789,7.789c0,4.303,3.487,7.789,7.789,7.789h101.776 c4.303,0,7.789-3.486,7.789-7.789C283.175,356.955,279.688,353.468,275.386,353.468z"/> </g> </g> <g> <g> <path d="M296.849,381.374H173.61c-4.303,0-7.789,3.486-7.789,7.789c0,4.303,3.487,7.789,7.789,7.789h123.239 c4.303,0,7.789-3.486,7.789-7.789C304.638,384.86,301.152,381.374,296.849,381.374z"/> </g> </g> <g> <g> <path d="M183.995,411.414h-32.368v-99.353h32.368c4.303,0,7.789-3.486,7.789-7.789c0-4.303-3.486-7.789-7.789-7.789h-40.157 c-4.303,0-7.789,3.486-7.789,7.789v114.931c0,4.303,3.487,7.789,7.789,7.789h40.157c4.303,0,7.789-3.486,7.789-7.789 C191.784,414.9,188.298,411.414,183.995,411.414z"/> </g> </g> </g>
</svg>